<svg xmlns="http://www.w3.org/2000/svg" viewBox="0 0 131.63 114"><title>b-w-logo</title><g id="Layer_2" data-name="Layer 2"><g id="Layer_1-2" data-name="Layer 1"><path d="M103.61,90.09a40.49,40.49,0,0,0,2.75-14.68,41.66,41.66,0,0,0-.44-6L91,43.58a40.52,40.52,0,0,0-19-8.35Z"/><path d="M40.84,43.26,25.43,70a41,41,0,0,0-.37,5.46,40.42,40.42,0,0,0,3,15.35L60.18,35.14A40.43,40.43,0,0,0,40.84,43.26Z"/><path d="M95.55,103H35.87a40.67,40.67,0,0,0,17.07,11H78.47A40.7,40.7,0,0,0,95.55,103Z"/><path d="M65.3,25,66,25v0a49.69,49.69,0,0,1,15.84,2.81L65.82,0,50,27.39A49.83,49.83,0,0,1,65.3,25Z"/><path d="M23.87,103H21l1.37-2.37a49.73,49.73,0,0,1-5.94-15.08L0,114H34A50.3,50.3,0,0,1,23.87,103Z"/><path d="M114.44,84.22A49.85,49.85,0,0,1,109,99.36l2.1,3.64h-4.34a50.3,50.3,0,0,1-10.15,11h35.05Z"/></g></g></svg>